<svg id="Layer_1" data-name="Layer 1" xmlns="http://www.w3.org/2000/svg" xmlns:xlink="http://www.w3.org/1999/xlink" viewBox="0 0 571.05 623.43"><defs><style>.cls-1{fill:none;}.cls-2{clip-path:url(#clip-path);}.cls-3{fill:url(#linear-gradient);}.cls-4{fill:url(#linear-gradient-2);}.cls-5{fill:url(#linear-gradient-3);}.cls-6{fill:#342715;}.cls-7{fill:#0c0d0d;}</style><clipPath id="clip-path" transform="translate(4.27 62.63)"><path class="cls-1" d="M8.25,445.84A1346.94,1346.94,0,0,1,36.52,285.61c16-66.39,24.39-100.35,45.89-137.66,18-31.15,54.65-94.81,130.87-122.37,19.43-7,66.46-20.75,122.36-6.79,58.32,14.55,80.43,43,101.05,65.07C504,156,531.82,252.28,544.69,328.1a697.13,697.13,0,0,1,10.19,116.5C372.47,444.6,190.67,445.84,8.25,445.84Z"/></clipPath><linearGradient id="linear-gradient" x1="281.26" y1="560.8" x2="281.26" y2="142.58" gradientUnits="userSpaceOnUse"><stop offset="0" stop-color="#dd1f26"/><stop offset="1" stop-color="#fbee45"/></linearGradient><linearGradient id="linear-gradient-2" x1="281.26" y1="384.31" x2="281.26" y2="10.89" gradientUnits="userSpaceOnUse"><stop offset="0" stop-color="#f69b2b"/><stop offset="1" stop-color="#ffed46"/></linearGradient><linearGradient id="linear-gradient-3" x1="80.04" y1="62.75" x2="481.13" y2="62.75" gradientUnits="userSpaceOnUse"><stop offset="0" stop-color="#fedb44"/><stop offset="1" stop-color="#fbef53"/></linearGradient></defs><g class="cls-2"><path class="cls-3" d="M566.78,441.85c-22,21.93-117.08,112-267.76,118.57C126.25,568,14,460-4.27,441.85V142.58H566.78Z" transform="translate(4.27 62.63)"/><path class="cls-4" d="M536.19,278.09c-19.61,19.59-104.54,100-239.07,105.88C142.86,390.73,42.66,294.34,26.33,278.09V10.89H536.19Z" transform="translate(4.27 62.63)"/><path class="cls-5" d="M481.13,147.57A517.61,517.61,0,0,1,293.72,188,518.48,518.48,0,0,1,80,147.57V-62.63H481.13Z" transform="translate(4.27 62.63)"/></g><path class="cls-6" d="M395.19,195.48c-.16,10.94-8.75,12.86-17.22,12.79a11.83,11.83,0,0,0-7.88,2.88c-3.83,3.39-7.23,7.09-11.76,9.49a11.76,11.76,0,0,1-5.87,1.35c-12.27-.44-27.55-5.64-38-12a11.46,11.46,0,0,0-4.88-1.64c-23.19-2.14-35.17,18.79-57.8,1.57a12.27,12.27,0,0,0-6-2.41c-21.9-2.3-35.72,19.79-45.26-6.53a11.83,11.83,0,0,0-10.2-7.76c-15.93-1.22-34.06,6.23-39.29,1.35a4.41,4.41,0,0,1-1.18-4.88,11.85,11.85,0,0,0-.65-10.42c-1.91-3.28-2-6.73,2.7-8.5a10.87,10.87,0,0,0,1.6-.69c8.53-4.64,19.72-17.17,25.26-26.68a11.88,11.88,0,0,1,9.75-6c12.56-.48,25.24-4.52,27.51-14.86a11.7,11.7,0,0,1,9.49-8.93c16.66-2.85,40.95.91,51.52,6.67a11.87,11.87,0,0,0,5.67,1.46H305a11.85,11.85,0,0,1,9.79,5.19l3.11,4.57a11.63,11.63,0,0,0,8.15,5.06,37,37,0,0,1,10.1,2.94,11.73,11.73,0,0,1,6.67,9,11.83,11.83,0,0,0,10.6,10.07c22.52,2.16,21.88-2.86,22.57,12a11.82,11.82,0,0,0,7.72,10.55c4.48,1.66,8.18,3.19,10.79,10.38A11.41,11.41,0,0,1,395.19,195.48Z" transform="translate(4.27 62.63)"/><path class="cls-7" d="M370,121a24.82,24.82,0,0,0-15.58,5.1,23.85,23.85,0,0,0-6.08,7.12.61.61,0,0,1-1.12-.14,44.65,44.65,0,0,0-7.52-15.2c-5.74-7.43-12-10.38-11.33-11.61s8.77.25,14.72,5.38a25.21,25.21,0,0,1,7.65,12.46,12.86,12.86,0,0,1,6.24-5.37C363.55,116.13,369.59,120.68,370,121Z" transform="translate(4.27 62.63)"/><path class="cls-7" d="M399.24,96.77a33.43,33.43,0,0,0-19.66,11.73C373.64,88.31,362,84.81,362,84.81c10.49-5.39,20.68,14,20.68,14C390.07,93.16,399.24,96.77,399.24,96.77Z" transform="translate(4.27 62.63)"/><path class="cls-7" d="M408.19,138.25a24.48,24.48,0,0,0-15.57,11.61,25.51,25.51,0,0,0-17.57-16.43,15.21,15.21,0,0,1,18.42,9.07,10.23,10.23,0,0,1,14.72-4.25Z" transform="translate(4.27 62.63)"/><path class="cls-6" d="M559.69,449.55l-.11-7c-.07-4.54-.17-9.08-.32-13.58q-.32-11-.92-21.72a747.07,747.07,0,0,0-15-115.74h0C528.55,222.75,504,163.48,470.41,116.31,444.93,80.56,415.08,52.87,381.68,34c-32.44-18.28-66.79-27.46-102-27.27S210.26,16.47,178,35.1c-33.21,19.16-62.78,47.11-87.89,83.07a395.15,395.15,0,0,0-38.42,69.55C24.71,250,8.91,325,5.17,409.34q-.45,9.84-.66,19.86-.16,7.55-.21,15.17l0,5.18v2.29L559.7,450.1Zm-445-17.4a36.29,36.29,0,0,0-3.41,1.42l-10,.55A72.53,72.53,0,0,1,95.79,425a64.87,64.87,0,0,1-5.67-17.76,19.62,19.62,0,0,1-6.42,6.06,19.91,19.91,0,0,1-8.3,2.64L80.68,434c-1,.52-1.84,1-2.66,1.46l-5.33.33a23.64,23.64,0,0,1-4.85-14.62,23,23,0,0,1,3.41-11.34,22.56,22.56,0,0,0,17-4.91,22,22,0,0,0,7.18-12.08c1.65,2.78,1.52,3.82,1,6-.62,2.82-1.88,4-2.17,4.15a39.3,39.3,0,0,0,24.55-5.67Q116.76,414.79,114.68,432.15Zm31.33-.22-9.17.4a12.67,12.67,0,0,1-4.42-5.84,12.33,12.33,0,0,1-.37-6.05,36.63,36.63,0,0,1,1.5-8.3c2-6.52,4.37-7.62,5.29-12.85.79-4.39-.59-5.27-.37-10.94a35.53,35.53,0,0,1,2.65-12.1,52.59,52.59,0,0,1,1.29,30.9,6.48,6.48,0,0,0,.87,5.35,21.87,21.87,0,0,1,3.88,10.59A21.4,21.4,0,0,1,146,431.93Zm119.81-74.46L257.45,377c2.59,11.23,4.7,35,5.68,52.16l-4.07,0c-2.06-14.85-11.57-37.42-7.54-54.32A16.36,16.36,0,0,1,254,369.5l18.79-28.17Zm-24.59-79.32h0c0,.54.08,1.1.13,1.64a5.63,5.63,0,0,0,2.25,4.06c9.23,6.79,16.54,14.41,20.06,25.75-12.13-4-32.56-17.9-43.9-30.07l-11.7-4.31c-1.92.2-3.84.4-5.76.58l-23.22,2.36c-1.62-7.78-1.08-5.14-2.69-12.92l15.33-4.93c8.36,2.72,16.6,5.6,25,7.37a66.78,66.78,0,0,0,23.73,1.13c.17,2.07.34,4.15.52,6.22C241.05,276.08,241.14,277.11,241.23,278.15Zm43,130.38A150.49,150.49,0,0,1,279,394c-3.66-11.42-4.67-23.7-1.39-31.53a13.84,13.84,0,0,1,4.57-6c4.73-.42,9.77,16,11.56,22.26A111.77,111.77,0,0,1,284.24,408.53ZM430.71,417l.26-4.7.9-2.9,7.51.61,2.72-.61,4-1.2,3.33-2.05,3.69,5.91,4.53,3.73,7.12,2.77c.6.77,1.2,1.53,1.81,2.29a5.5,5.5,0,0,1-.52,6L461,432l-4.4-.48-1.68.48-1.78,1.38-3.73-.14,3.73.14-.05,0-21.25-.78,0-.06,17.55.66-17.55-.66.28-.94ZM475,419.81c-.13-.36-1.42-5.42-1.42-5.42l10.87,6.26L488,423.3l1,4.1-1.17,2.89-1.81,2.17-4.92.49-1.51,1.4L469.4,434l4.79-7.05,1.82-1.57.51-1.93S475.1,420.17,475,419.81Zm4.68,14.57L469.38,434v0l10.27.38Zm14.4.52,1.21.05L494,434.9ZM424,431.62l-.3.63-16.46-.62,3.3-8.33,2.33-5.66,3.1-9.28a47.63,47.63,0,0,1,4.79,8.44,46.19,46.19,0,0,1,2.59,7.59l1.16,4.22Zm-.3.64,0,.06-4.15-.15-.18-.07-.1.06-12-.44,0-.08Zm116.9,3.08-32,.1-14.54-.55.06,0,.77-2.65.26-8,.26-4.7-.13-3.62-3.88-2.29L489,412.1l-2.85-3.26L484.81,406l.26-3.13.38-7.23-1.68-6.87,18,23.38,5.44,4.82,6.47,4,.13.73,5.57,3.61a53,53,0,0,0,14.23,0l-5.17-1.32h7.89L526.1,421.5l7.63,1-12-4.34h-5.31l-7.12-5.3-6.47-8.32-6.47-10L489.73,382l-3.11-3.26-6.86-5.9-5.69-2.17-5.57-1.21-7,.49-8.15,2-6.6.49L437.7,372l-4-.36-7-2.65-5.3-3.85,3.36-.61-19.28-7,3.49-1.32a42.32,42.32,0,0,0-5.95-1.57,43,43,0,0,0-8.8-.72l2.46-1-5.44-.72-4.79,1.21H382l1.55,1a11.66,11.66,0,0,0-3.62-.12,11.3,11.3,0,0,0-4.53,1.57l1.68.84a10.71,10.71,0,0,0-4.66.84,9.78,9.78,0,0,0-3.88,3h1.68l-3.88,3.61,1.68.48,2.46-1.08L369,365.22l4.66-1.69L370,366.66l-.51,4.22-4.4,4.22-1.56,1.56,4.92,8v1.57l2.33,2.89,1.81-.12.78-1.45,5.05-2.77-.39,6,.91,1.44,2.45-2.53-.9,5.79,2.07-1.57-1.81,5.3,3.88-1.2a6.39,6.39,0,0,0,.65,4.94,7.11,7.11,0,0,0,3.49,2.89,2.43,2.43,0,0,1-.13-2.29,2.75,2.75,0,0,1,1.68-1.33,9.68,9.68,0,0,0,3.24,7.23,9.19,9.19,0,0,0,3,1.69l.64-2.53,3,6.39,3.37-1.33-2.2,13.5-1,3.25-1.5.9-7.21-.26,7.19.27-.14.09-26.13-1q-26.14-.75-53-1.08c-.71-1.65-1.41-3.42-2-5.33a70.75,70.75,0,0,1-3.39-25.49c.26-24.24-5.73-40.52-11.34-51A154.15,154.15,0,0,0,290.56,329c10.75-6.29,28.26-18.86,28.26-18.86h30.27a8,8,0,0,0,7.29-4.74,50.11,50.11,0,0,1,5.09-9.14c.22-.32.45-.62.67-.9,3.3-4.26,5.77-5.23,5.77-5.23,4.16-5.28,18.5-8.31,18.5-8.31,10,12.85,41.74,8.7,41.74,8.7a114.17,114.17,0,0,0,35.12-12.28c18.89,4,23.43-8.69,23.43-8.69v-8.14a3.83,3.83,0,0,0-3.87-3.84c-6.62.11-9.59-.63-12.95-4.63a87.3,87.3,0,0,0-9.18-8.81,9.69,9.69,0,0,0-7.7-2.24c-5.11.72-13.25,1.55-15-.1-2.64-2.45-9.06-13.77-9.06-13.77s-9.64-5.11-16.62,0c-35.7,21-41.54,17.93-48.53,17s-16.62-11.71-17.37-12.1-14.74-2.83-36.64,0c-17,.19-18.51,2.83-18.51,2.83s-2.36,2.93-2.15,5.93c.13,1.88,1.26,3.79,4.61,5,11.34,1.14,14.16,8.5,14.16,8.5a97.19,97.19,0,0,0-11.22,10.34,39.72,39.72,0,0,0-6.16,8.52,14.88,14.88,0,0,0-1.31,3.79c-1.26,7.09-11.71,18.78-17.15,24.46-.54-1-1.06-1.95-1.55-2.92-.94-4-11.36-16.51-17.13-20.81a5.83,5.83,0,0,1-2.27-4.4c-.13-3.49-.28-7-.43-10.48,9,1,19.23,2.7,28.31,4.6a3.43,3.43,0,0,0,.71.08,3.39,3.39,0,0,0,2.9-1.66c2.26-3.84,2.11-5.57,1.51-6.42-4.75-2.3-8.19-1.64-8.5-9.07a77.54,77.54,0,0,0,.28-9.27c-.76-18.57-12.34-10.83-38.8-10.55-5.19.08-9.75-.07-13.42-.28a8.22,8.22,0,0,1-6.38-3.71c-2-3.12-4.09-6.23-6.13-9.36a8.57,8.57,0,0,0-6.78-3.83l-37.21-1.37a9,9,0,0,1-6.46-3.21c-8-9.21-25.55-12-33.53-7.71-8.22,3-14.35,3.36-28.94,17.08C87,229.56,88.21,235.64,83,245.58c-11.94,17,8.46,27.18,26.05,26.07,10.4-.88,11.86-6,27.2-7.93,29.39-4.09,13.53,16.83,36.26,29.46a181.71,181.71,0,0,0,29.58-5.26,9.43,9.43,0,0,1,1.46-.29,11.41,11.41,0,0,1,10.43,4.29c13.64,17.52,19,19.63,42.94,29.58q-9.8,17.94-19.55,35.89a13.38,13.38,0,0,0-1.59,5.6c-1.06,18.32-2.12,45.35-3.19,66.48q-19,.3-37.57.78l-.75,0q-16.47.45-32.67,1c0-.34,0-.7-.05-1.05a124,124,0,0,0-1.14-14,74,74,0,0,0-2.27-9.82,22.05,22.05,0,0,1-5.29-9.07,23.38,23.38,0,0,1,.77-14.34,29.35,29.35,0,0,1,9.55-13.51,6.53,6.53,0,0,1,4.62-1.42l10.72.74a9.31,9.31,0,0,1,6.23,2.94,24,24,0,0,1,4.65,7.71c3.93,10.38,3.38,15.92,2.8,17.88H179.63a20.42,20.42,0,0,0,1.51,8.7c.49,1.17,4.64,10.73,12.46,10.94h.29l.74,0a13,13,0,0,0,7.29-3.37,15.94,15.94,0,0,0,5.28-10.58,86.91,86.91,0,0,0-2.64-37.39c-2.51-8.36-6.15-20.57-17.37-31-10-9.25-29-19.95-43.06-14.35-3.66,1.47-6.75,3.95-13.59,5.3-6.34,1.23-11.23.59-15.86,0-33.5-4.3-37.74-3.57-41.74-1.5s-7.76,5.4-11.52,8.66c-1.09.95-6,5.77-9.82,9.82-12.05,12.92-10.48,34.84-10.2,38.9a64.26,64.26,0,0,0,4.92,20.4,77.67,77.67,0,0,1,4.15-26.06,75.17,75.17,0,0,1,3.78-9.06q-.54,34.62-1,69.27l-34-.16a.18.18,0,0,1,0-.1q0-3.33.11-6.63c2.75-124.29,31.31-228.65,82.91-302.54C149.33,59.25,212.38,21.93,279.78,21.58h1c67.06,0,130.09,36.67,177.59,103.34,52.57,73.77,82.23,178.7,86.1,304.09.07,2.1.13,4.2.18,6.32Zm-234.31-143c11.17-2.65,29.54-8,41.81-16.87h18.14l-10.84,15-.65.9-2.2,3a8.7,8.7,0,0,1-7.14,3.61,135.64,135.64,0,0,0-25,2.47l-1.28.23c-6.52,1.21-14.07,3-22.62,5.44V294.39S300.41,293.75,306.27,292.35ZM304.46,285l3.4-19,15.86,8.21Z" transform="translate(4.27 62.63)"/><polyline class="cls-1" points="398.18 493.68 394.62 493.58 375.57 493.08 370.23 492.93"/><path class="cls-1" d="M409.76,430.3" transform="translate(4.27 62.63)"/><path class="cls-1" d="M516.67,433.37" transform="translate(4.27 62.63)"/></svg>